<svg width="48" height="48" viewBox="0 0 48 48" fill="none" xmlns="http://www.w3.org/2000/svg">
<path d="M0 0H48.0002V48H0V0Z" fill="black"/>
<path d="M15.4033 42.4979L24.1813 14.1879H32.3133L41.0913 42.4979H33.9473L30.4133 28.3619C30.0333 26.9433 29.6533 25.4359 29.2733 23.8399C28.9186 22.2439 28.5513 20.7239 28.1713 19.2799H28.0193C27.6899 20.7493 27.3353 22.2819 26.9553 23.8779C26.5753 25.4486 26.2079 26.9433 25.8533 28.3619L22.3193 42.4979H15.4033ZM21.3693 35.9999V30.7559H35.0493V35.9999H21.3693Z" fill="white"/>
<path d="M16.1401 29.8942C14.8148 29.8942 13.5641 29.6702 12.3881 29.2222C11.2121 28.7742 10.1668 28.1022 9.25211 27.2062C8.35611 26.2915 7.64678 25.1715 7.12411 23.8462C6.62011 22.5022 6.36811 20.9529 6.36811 19.1982C6.36811 17.4622 6.62944 15.9222 7.15211 14.5782C7.69344 13.2155 8.42144 12.0675 9.33611 11.1342C10.2694 10.2009 11.3334 9.49153 12.5281 9.0062C13.7228 8.52086 14.9828 8.2782 16.3081 8.2782C17.6708 8.2782 18.8841 8.54886 19.9481 9.0902C21.0308 9.63153 21.9268 10.2662 22.6361 10.9942L20.0321 14.1862C19.5094 13.7009 18.9588 13.3089 18.3801 13.0102C17.8014 12.7115 17.1388 12.5622 16.3921 12.5622C15.4961 12.5622 14.6748 12.8235 13.9281 13.3462C13.1814 13.8502 12.5841 14.5875 12.1361 15.5582C11.7068 16.5102 11.4921 17.6675 11.4921 19.0302C11.4921 20.4115 11.6881 21.5969 12.0801 22.5862C12.4908 23.5569 13.0601 24.3035 13.7881 24.8262C14.5161 25.3302 15.3654 25.5822 16.3361 25.5822C17.1761 25.5822 17.9228 25.3955 18.5761 25.0222C19.2481 24.6489 19.8268 24.2009 20.3121 23.6782L22.9441 26.8142C22.0668 27.8409 21.0494 28.6155 19.8921 29.1382C18.7534 29.6422 17.5028 29.8942 16.1401 29.8942Z" fill="white"/>
<path d="M0 0H48.0002V48H0V0Z" fill="#B10000"/>
<path d="M15.4033 42.4979L24.1813 14.1879H32.3133L41.0913 42.4979H33.9473L30.4133 28.3619C30.0333 26.9433 29.6533 25.4359 29.2733 23.8399C28.9186 22.2439 28.5513 20.7239 28.1713 19.2799H28.0193C27.6899 20.7493 27.3353 22.2819 26.9553 23.8779C26.5753 25.4486 26.2079 26.9433 25.8533 28.3619L22.3193 42.4979H15.4033ZM21.3693 35.9999V30.7559H35.0493V35.9999H21.3693Z" fill="black"/>
<path d="M16.1401 29.8942C14.8148 29.8942 13.5641 29.6702 12.3881 29.2222C11.2121 28.7742 10.1668 28.1022 9.25211 27.2062C8.35611 26.2915 7.64678 25.1715 7.12411 23.8462C6.62011 22.5022 6.36811 20.9529 6.36811 19.1982C6.36811 17.4622 6.62944 15.9222 7.15211 14.5782C7.69344 13.2155 8.42144 12.0675 9.33611 11.1342C10.2694 10.2009 11.3334 9.49153 12.5281 9.0062C13.7228 8.52086 14.9828 8.2782 16.3081 8.2782C17.6708 8.2782 18.8841 8.54886 19.9481 9.0902C21.0308 9.63153 21.9268 10.2662 22.6361 10.9942L20.0321 14.1862C19.5094 13.7009 18.9588 13.3089 18.3801 13.0102C17.8014 12.7115 17.1388 12.5622 16.3921 12.5622C15.4961 12.5622 14.6748 12.8235 13.9281 13.3462C13.1814 13.8502 12.5841 14.5875 12.1361 15.5582C11.7068 16.5102 11.4921 17.6675 11.4921 19.0302C11.4921 20.4115 11.6881 21.5969 12.0801 22.5862C12.4908 23.5569 13.0601 24.3035 13.7881 24.8262C14.5161 25.3302 15.3654 25.5822 16.3361 25.5822C17.1761 25.5822 17.9228 25.3955 18.5761 25.0222C19.2481 24.6489 19.8268 24.2009 20.3121 23.6782L22.9441 26.8142C22.0668 27.8409 21.0494 28.6155 19.8921 29.1382C18.7534 29.6422 17.5028 29.8942 16.1401 29.8942Z" fill="white"/>
</svg>
